<svg xmlns="http://www.w3.org/2000/svg" width="517.339" height="66.716" viewBox="0 0 517.339 66.716">
  <g id="line-waves2" transform="translate(-0.015 -129.405)">
    <path id="Path_1047" data-name="Path 1047" d="M18,318.41c40-14,85-16,125-1,43,15,91,16,134,1" transform="translate(-17.82 -177.1)" fill="none" stroke="#d1d5db" stroke-miterlimit="10" stroke-width="1"/>
    <path id="Path_1048" data-name="Path 1048" d="M277,318.41c37-14,77-14,115-5,45,19,97,22,143,5" transform="translate(-17.82 -177.1)" fill="none" stroke="#d1d5db" stroke-miterlimit="10" stroke-width="1"/>
    <path id="Path_1049" data-name="Path 1049" d="M18,329.2c40-14,85-16,125-1,43,15,91,16,134,1" transform="translate(-17.82 -177.1)" fill="none" stroke="#d1d5db" stroke-miterlimit="10" stroke-width="1"/>
    <path id="Path_1050" data-name="Path 1050" d="M277,329.2c37-14,77-14,115-5,45,19,97,22,143,5" transform="translate(-17.82 -177.1)" fill="none" stroke="#d1d5db" stroke-miterlimit="10" stroke-width="1"/>
    <path id="Path_1051" data-name="Path 1051" d="M18,340c40-14,85-16,125-1,43,15,91,16,134,1" transform="translate(-17.82 -177.1)" fill="none" stroke="#d1d5db" stroke-miterlimit="10" stroke-width="1"/>
    <path id="Path_1052" data-name="Path 1052" d="M277,340c37-14,77-14,115-5,45,19,97,22,143,5" transform="translate(-17.82 -177.1)" fill="none" stroke="#d1d5db" stroke-miterlimit="10" stroke-width="1"/>
    <path id="Path_1053" data-name="Path 1053" d="M18,350.77c40-14,85-16,125-1,43,15,91,16,134,1" transform="translate(-17.82 -177.1)" fill="none" stroke="#d1d5db" stroke-miterlimit="10" stroke-width="1"/>
    <path id="Path_1054" data-name="Path 1054" d="M277,350.77c37-14,77-14,115-5,45,19,97,22,143,5" transform="translate(-17.82 -177.1)" fill="none" stroke="#d1d5db" stroke-miterlimit="10" stroke-width="1"/>
    <path id="Path_1055" data-name="Path 1055" d="M18,361.55c40-14,85-16,125-1,43,15,91,16,134,1" transform="translate(-17.82 -177.1)" fill="none" stroke="#d1d5db" stroke-miterlimit="10" stroke-width="1"/>
    <path id="Path_1056" data-name="Path 1056" d="M277,361.55c37-14,77-14,115-5,45,19,97,22,143,5" transform="translate(-17.82 -177.1)" fill="none" stroke="#d1d5db" stroke-miterlimit="10" stroke-width="1"/>
  </g>
</svg>
